<svg width="1440.000000" height="250.500000" viewBox="0 0 1440 250.5" fill="none" xmlns="http://www.w3.org/2000/svg" xmlns:xlink="http://www.w3.org/1999/xlink">
	<desc>
			Created with Pixso.
	</desc>
	<defs/>
	<path id="bg wave svg" d="M0 65.56L60 52.09C120 38.62 240 12.29 360 3.71C480 -5.47 600 3.71 720 16.57C840 30.04 960 47.8 1080 52.09C1200 56.38 1320 47.8 1380 43.52L1440 38.62L1440 250.5L1380 250.5C1320 250.5 1200 250.5 1080 250.5C960 250.5 840 250.5 720 250.5C600 250.5 480 250.5 360 250.5C240 250.5 120 250.5 60 250.5L0 250.5L0 65.56Z" fill="#343D68" fill-opacity="1.000000" fill-rule="evenodd"/>
</svg>
