<svg width="1440.000000" height="250.500000" viewBox="0 0 1440 250.5" fill="none" xmlns="http://www.w3.org/2000/svg" xmlns:xlink="http://www.w3.org/1999/xlink">
	<desc>
			Created with Pixso.
	</desc>
	<defs/>
	<path id="bg wave svg" d="M1440 184.93L1380 198.4C1320 211.87 1200 238.2 1080 246.78C960 255.96 840 246.78 720 233.92C600 220.45 480 202.69 360 198.4C240 194.11 120 202.69 60 206.97L0 211.87L0 0L60 0C120 0 240 0 360 0C480 0 600 0 720 0C840 0 960 0 1080 0C1200 0 1320 0 1380 0L1440 0L1440 184.93Z" fill="#343D68" fill-opacity="1.000000" fill-rule="evenodd"/>
</svg>
