<svg width="30.000000" height="30.000000" viewBox="0 0 30 30" fill="none" xmlns="http://www.w3.org/2000/svg" xmlns:xlink="http://www.w3.org/1999/xlink">
	<desc>
			Created with Pixso.
	</desc>
	<defs>
		<clipPath id="clip1_4787">
			<rect id="gmail-svgrepo-com 1" width="30.000000" height="30.000000" fill="white" fill-opacity="0"/>
		</clipPath>
	</defs>
	<g clipPath="url(#clip1_4787)">
		<path id="Vector" d="M30 6.19L30 23.8C30 25.42 28.68 26.73 27.06 26.73L2.93 26.73C1.31 26.73 0 25.42 0 23.8L0 6.19C0 6.14 0 6.09 0 6.03C0.08 4.53 1.27 3.34 2.77 3.26C2.83 3.26 2.88 3.26 2.93 3.26L27.06 3.26C27.11 3.26 27.17 3.26 27.22 3.26C28.72 3.34 29.91 4.53 29.99 6.03C30 6.08 30 6.14 30 6.19Z" fill="#FFFFFF" fill-opacity="1.000000" fill-rule="nonzero"/>
		<path id="Vector" d="M27.22 3.26C27.17 3.26 27.11 3.26 27.06 3.26L15 3.26L15 26.73L27.06 26.73C28.68 26.73 30 25.42 30 23.8L30 6.19C30 6.14 30 6.08 29.99 6.03C29.91 4.53 28.72 3.34 27.22 3.26Z" fill="#FFFFFF" fill-opacity="1.000000" fill-rule="nonzero"/>
		<path id="Vector" d="M29.99 6.03C29.91 4.53 28.72 3.34 27.22 3.26C22.43 8.06 19.74 10.75 15 15.49C13.2 13.69 4.54 5.03 2.77 3.26C1.27 3.34 0.08 4.53 0 6.03C0 6.09 0 6.14 0 6.19L0 23.8C0 25.42 1.31 26.73 2.93 26.73L3.91 26.73L3.91 9.94L13.61 19.64C13.99 20.02 14.49 20.21 15 20.21C15.5 20.21 16 20.02 16.38 19.64L26.08 9.93L26.08 26.73L27.06 26.73C28.68 26.73 30 25.42 30 23.8L30 6.19C30 6.14 30 6.08 29.99 6.03Z" fill="#303030" fill-opacity="0.570000" fill-rule="nonzero"/>
		<path id="Vector" d="M16.38 19.64L26.08 9.93L26.08 26.73L27.06 26.73C28.68 26.73 30 25.42 30 23.8L30 6.19C30 6.14 30 6.08 29.99 6.03C29.91 4.53 28.72 3.34 27.22 3.26C22.43 8.06 19.74 10.75 15 15.49L15 20.21C15.5 20.21 16 20.02 16.38 19.64Z" fill="#303030" fill-opacity="0.570000" fill-rule="nonzero"/>
	</g>
</svg>
