<svg width="75.000000" height="75.000000" viewBox="0 0 75 75" fill="none" xmlns="http://www.w3.org/2000/svg" xmlns:xlink="http://www.w3.org/1999/xlink">
	<desc>
			Created with Pixso.
	</desc>
	<defs>
		<clipPath id="clip1_4731">
			<rect id="bootstrap-4-logo-svgrepo-com 1" width="39.130436" height="39.130436" transform="translate(18.260956 15.420471)" fill="white" fill-opacity="0"/>
		</clipPath>
		<linearGradient x1="69.642883" y1="74.999985" x2="5.739769" y2="0.000027" id="paint_linear_1_4730_0" gradientUnits="userSpaceOnUse">
			<stop stop-color="#0D54BE"/>
			<stop offset="1.000000" stop-color="#20ECD3"/>
		</linearGradient>
	</defs>
	<path id="Polygon 4" d="M6.02 18.17C5.4 18.52 5.02 19.19 5.02 19.9L5.02 55.09C5.02 55.8 5.4 56.47 6.02 56.82L36.5 74.42C37.11 74.77 37.88 74.77 38.5 74.42L68.97 56.82C69.59 56.47 69.97 55.8 69.97 55.09L69.97 19.9C69.97 19.19 69.59 18.52 68.97 18.17L38.5 0.57C37.88 0.22 37.11 0.22 36.5 0.57L6.02 18.17ZM8.02 20.48L8.02 54.51L37.5 71.53L66.97 54.51L66.97 20.48L37.5 3.46L8.02 20.48Z" fill="url(#paint_linear_1_4730_0)" fill-opacity="1.000000" fill-rule="evenodd"/>
	<rect id="bootstrap-4-logo-svgrepo-com 1" width="39.130436" height="39.130436" transform="translate(18.260956 15.420471)" fill="#FFFFFF" fill-opacity="0"/>
	<g clip-path="url(#clip1_4731)">
		<path id="Vector" d="M18.26 49.5C18.26 52.29 20.52 54.55 23.3 54.55L52.34 54.55C55.13 54.55 57.39 52.29 57.39 49.5L57.39 20.46C57.39 17.67 55.13 15.42 52.34 15.42L23.3 15.42C20.51 15.42 18.26 17.67 18.26 20.46L18.26 49.5L18.26 49.5Z" fill="#563D7C" fill-opacity="1.000000" fill-rule="nonzero"/>
		<path id="Vector" d="M34.48 32.72L34.48 27.18L39.36 27.18C39.82 27.18 40.27 27.22 40.7 27.3C41.14 27.38 41.52 27.51 41.85 27.71C42.18 27.91 42.45 28.19 42.65 28.54C42.84 28.9 42.94 29.35 42.94 29.9C42.94 30.9 42.65 31.62 42.05 32.06C41.45 32.5 40.69 32.72 39.76 32.72L34.48 32.72ZM29.27 23.13L29.27 46.83L40.75 46.83C41.82 46.83 42.85 46.69 43.86 46.43C44.86 46.16 45.76 45.75 46.54 45.2C47.33 44.65 47.95 43.93 48.42 43.06C48.88 42.19 49.12 41.15 49.12 39.96C49.12 38.48 48.76 37.21 48.04 36.16C47.32 35.11 46.23 34.37 44.77 33.95C45.83 33.44 46.63 32.79 47.17 31.99C47.72 31.2 47.99 30.2 47.99 29.01C47.99 27.9 47.81 26.97 47.44 26.22C47.08 25.47 46.56 24.87 45.9 24.41C45.23 23.96 44.44 23.63 43.51 23.43C42.58 23.23 41.55 23.13 40.42 23.13L29.27 23.13ZM34.48 42.78L34.48 36.27L40.16 36.27C41.28 36.27 42.19 36.53 42.88 37.05C43.56 37.57 43.91 38.44 43.91 39.66C43.91 40.28 43.8 40.79 43.59 41.19C43.38 41.58 43.1 41.9 42.74 42.13C42.39 42.36 41.98 42.53 41.52 42.63C41.05 42.73 40.57 42.78 40.06 42.78L34.48 42.78Z" fill="#FFFFFF" fill-opacity="1.000000" fill-rule="nonzero"/>
	</g>
</svg>
