<svg width="75.000000" height="75.000000" viewBox="0 0 75 75" fill="none" xmlns="http://www.w3.org/2000/svg" xmlns:xlink="http://www.w3.org/1999/xlink">
	<desc>
			Created with Pixso.
	</desc>
	<defs>
		<clipPath id="clip1_4700">
			<rect id="html-5-logo-svgrepo-com 1" width="43.695652" height="43.695652" transform="translate(16.000000 16.000000)" fill="white" fill-opacity="0"/>
		</clipPath>
		<linearGradient x1="69.642883" y1="74.999985" x2="5.739769" y2="0.000027" id="paint_linear_1_4699_0" gradientUnits="userSpaceOnUse">
			<stop stop-color="#0D54BE"/>
			<stop offset="1.000000" stop-color="#20ECD3"/>
		</linearGradient>
	</defs>
	<path id="Polygon 1" d="M7.02 17.59C5.78 18.3 5.02 19.63 5.02 21.05L5.02 53.94C5.02 55.36 5.78 56.69 7.02 57.4L35.5 73.84C36.73 74.55 38.26 74.55 39.5 73.84L67.97 57.4C69.21 56.69 69.97 55.36 69.97 53.94L69.97 21.05C69.97 19.63 69.21 18.3 67.97 17.59L39.5 1.15C38.26 0.44 36.73 0.44 35.5 1.15L7.02 17.59ZM8.02 19.32C7.4 19.68 7.02 20.34 7.02 21.05L7.02 53.94C7.02 54.65 7.4 55.31 8.02 55.67L36.5 72.11C37.11 72.47 37.88 72.47 38.5 72.11L66.97 55.67C67.59 55.31 67.97 54.65 67.97 53.94L67.97 21.05C67.97 20.34 67.59 19.68 66.97 19.32L38.5 2.88C37.88 2.52 37.11 2.52 36.5 2.88L8.02 19.32Z" fill="url(#paint_linear_1_4699_0)" fill-opacity="1.000000" fill-rule="evenodd"/>
	<g clip-path="url(#clip1_4700)">
		<path id="Vector" d="M53.28 24.56L50.47 56.07L37.82 59.58L25.21 56.08L22.4 24.56L53.28 24.56Z" fill="#E44D26" fill-opacity="1.000000" fill-rule="nonzero"/>
		<path id="Vector" d="M37.84 56.9L48.06 54.07L50.46 27.14L37.84 27.14L37.84 56.9Z" fill="#F16529" fill-opacity="1.000000" fill-rule="nonzero"/>
		<path id="Vector" d="M32.37 34.87L37.84 34.87L37.84 31L28.15 31L28.24 32.04L29.19 42.69L37.84 42.69L37.84 38.83L32.73 38.83L32.37 34.87ZM33.25 44.63L29.36 44.63L29.91 50.7L37.83 52.89L37.84 52.89L37.84 48.87L37.83 48.87L33.52 47.71L33.25 44.63Z" fill="#EBEBEB" fill-opacity="1.000000" fill-rule="nonzero"/>
		<path id="Vector" d="M25.28 16L27.24 16L27.24 17.94L29.04 17.94L29.04 16L31 16L31 21.87L29.04 21.87L29.04 19.9L27.24 19.9L27.24 21.87L25.28 21.87L25.28 16L25.28 16ZM33.59 17.94L31.86 17.94L31.86 16L37.28 16L37.28 17.94L35.55 17.94L35.55 21.87L33.59 21.87L33.59 17.94L33.59 17.94L33.59 17.94ZM38.14 16L40.19 16L41.45 18.06L42.71 16L44.76 16L44.76 21.87L42.8 21.87L42.8 18.96L41.45 21.05L41.42 21.05L40.06 18.96L40.06 21.87L38.14 21.87L38.14 16ZM45.74 16L47.7 16L47.7 19.93L50.46 19.93L50.46 21.87L45.74 21.87L45.74 16L45.74 16Z" fill="#000000" fill-opacity="1.000000" fill-rule="nonzero"/>
		<path id="Vector" d="M37.83 42.69L42.59 42.69L42.14 47.71L37.83 48.87L37.83 52.89L45.75 50.7L45.81 50.04L46.72 39.87L46.82 38.83L37.83 38.83L37.83 42.69ZM37.83 34.86L37.83 34.87L47.17 34.87L47.24 34L47.42 32.04L47.51 31L37.83 31L37.83 34.86L37.83 34.86Z" fill="#FFFFFF" fill-opacity="1.000000" fill-rule="nonzero"/>
	</g>
</svg>
