<svg width="30.000000" height="29.375366" viewBox="0 0 30 29.3754" fill="none" xmlns="http://www.w3.org/2000/svg" xmlns:xlink="http://www.w3.org/1999/xlink">
	<desc>
			Created with Pixso.
	</desc>
	<defs/>
	<path id="SVGCleanerId 0 1" d="M14.99 0C6.71 0 0 6.74 0 15.06C0 21.71 4.29 27.35 10.26 29.34C11 29.48 11.28 29.02 11.28 28.62C11.28 28.26 11.26 27.31 11.26 26.06C7.08 26.97 6.2 24.04 6.2 24.04C5.52 22.3 4.54 21.84 4.54 21.84C3.18 20.9 4.64 20.92 4.64 20.92C6.15 21.03 6.94 22.47 6.94 22.47C8.28 24.77 10.45 24.11 11.31 23.72C11.44 22.75 11.83 22.09 12.26 21.71C8.93 21.33 5.43 20.04 5.43 14.27C5.43 12.62 6.01 11.28 6.97 10.23C6.81 9.84 6.3 8.31 7.12 6.24C7.12 6.24 8.38 5.84 11.24 7.78C12.44 7.45 13.72 7.28 15 7.28C16.27 7.28 17.55 7.45 18.75 7.78C21.61 5.84 22.87 6.24 22.87 6.24C23.69 8.31 23.18 9.84 23.02 10.23C23.98 11.28 24.56 12.62 24.56 14.27C24.56 20.05 21.06 21.33 17.72 21.7C18.25 22.16 18.73 23.08 18.73 24.49C18.73 26.5 18.72 28.12 18.72 28.62C18.72 29.02 18.99 29.49 19.75 29.34C25.7 27.35 30 21.71 30 15.06C30 6.74 23.28 0 14.99 0Z" fill="#FFFFFF" fill-opacity="1.000000" fill-rule="nonzero"/>
</svg>
