<svg width="26.399994" height="21.947632" viewBox="0 0 26.4 21.9476" fill="none" xmlns="http://www.w3.org/2000/svg" xmlns:xlink="http://www.w3.org/1999/xlink">
	<desc>
			Created with Pixso.
	</desc>
	<defs/>
	<path id="Vector" d="M15.47 11.3L14.43 10.36C14.55 10.15 14.64 9.93 14.73 9.71L16.19 9.71C16.67 9.71 17.06 9.35 17.06 8.91L17.06 6.59C17.06 6.16 16.67 5.8 16.19 5.8L14.73 5.8C14.64 5.58 14.55 5.36 14.43 5.15L15.47 4.21C15.81 3.9 15.81 3.4 15.47 3.09L13.66 1.45C13.32 1.14 12.77 1.14 12.43 1.45L11.39 2.39C11.16 2.29 10.92 2.2 10.68 2.12L10.68 0.79C10.68 0.35 10.29 0 9.81 0L7.25 0C6.77 0 6.38 0.35 6.38 0.79L6.38 2.12C6.14 2.2 5.9 2.29 5.67 2.39L4.63 1.45C4.47 1.3 4.25 1.21 4.01 1.21C3.78 1.21 3.56 1.3 3.4 1.45L1.59 3.09C1.43 3.24 1.34 3.44 1.34 3.65C1.34 3.86 1.43 4.06 1.59 4.21L2.63 5.15C2.51 5.36 2.42 5.58 2.33 5.8L0.87 5.8C0.39 5.8 0 6.16 0 6.59L0 8.91C0 9.35 0.39 9.71 0.87 9.71L2.33 9.71C2.42 9.93 2.51 10.15 2.63 10.36L1.59 11.3C1.25 11.61 1.25 12.11 1.59 12.42L3.4 14.06C3.74 14.37 4.29 14.37 4.63 14.06L5.67 13.12C5.9 13.22 6.14 13.31 6.38 13.39L6.38 14.72C6.38 15.16 6.77 15.51 7.25 15.51L9.81 15.51C10.29 15.51 10.68 15.16 10.68 14.72L10.68 13.39C10.92 13.31 11.16 13.22 11.39 13.12L12.43 14.06C12.77 14.37 13.32 14.37 13.66 14.06L15.47 12.42C15.81 12.11 15.81 11.61 15.47 11.3ZM13.22 8.74C13.1 9.21 12.9 9.66 12.61 10.08C12.4 10.39 12.45 10.8 12.74 11.06L13.62 11.86L13.05 12.38L12.16 11.58C11.88 11.32 11.43 11.27 11.08 11.47C10.63 11.73 10.13 11.91 9.61 12.02C9.22 12.1 8.94 12.42 8.94 12.79L8.94 13.93L8.12 13.93L8.12 12.79C8.12 12.42 7.84 12.1 7.45 12.02C6.93 11.91 6.43 11.73 5.98 11.47C5.63 11.27 5.18 11.32 4.9 11.58L4.01 12.38L3.44 11.86L4.32 11.06C4.61 10.8 4.66 10.39 4.45 10.08C4.16 9.66 3.96 9.21 3.84 8.74C3.74 8.38 3.39 8.12 2.99 8.12L1.74 8.12L1.74 7.38L2.99 7.38C3.39 7.38 3.74 7.13 3.84 6.77C3.96 6.29 4.16 5.84 4.44 5.43C4.66 5.12 4.61 4.71 4.32 4.45L3.44 3.65L4.01 3.13L4.9 3.93C5.18 4.19 5.63 4.24 5.98 4.04C6.43 3.78 6.92 3.6 7.45 3.49C7.84 3.4 8.12 3.08 8.12 2.71L8.12 1.58L8.94 1.58L8.94 2.71C8.94 3.08 9.22 3.4 9.61 3.49C10.13 3.6 10.63 3.78 11.08 4.04C11.43 4.24 11.88 4.19 12.16 3.93L13.05 3.13L13.62 3.65L12.74 4.45C12.45 4.71 12.4 5.12 12.61 5.43C12.9 5.84 13.1 6.29 13.22 6.77C13.31 7.13 13.67 7.38 14.07 7.38L15.32 7.38L15.32 8.12L14.07 8.12C13.67 8.12 13.32 8.38 13.22 8.74Z" fill="#FFFFFF" fill-opacity="0.870000" fill-rule="nonzero"/>
	<path id="Vector" d="M8.53 4.71C6.68 4.71 5.18 6.08 5.18 7.75C5.18 9.43 6.68 10.8 8.53 10.8C10.38 10.8 11.88 9.43 11.88 7.75C11.88 6.08 10.38 4.71 8.53 4.71ZM8.53 9.21C7.64 9.21 6.92 8.56 6.92 7.75C6.92 6.95 7.64 6.29 8.53 6.29C9.41 6.29 10.14 6.95 10.14 7.75C10.14 8.56 9.41 9.21 8.53 9.21Z" fill="#FFFFFF" fill-opacity="0.870000" fill-rule="nonzero"/>
	<path id="Vector" d="M25.82 16.83C26.2 16.77 26.45 16.44 26.38 16.1L26.05 14.48C26.02 14.31 25.92 14.16 25.76 14.07C25.61 13.97 25.42 13.94 25.24 13.97L24.28 14.13C24.2 14.01 24.12 13.9 24.03 13.79L24.59 13.05C24.7 12.91 24.74 12.74 24.7 12.58C24.67 12.41 24.56 12.27 24.41 12.17L22.92 11.24C22.6 11.04 22.17 11.11 21.95 11.4L21.39 12.14C21.25 12.1 21.1 12.07 20.95 12.05L20.78 11.17C20.71 10.83 20.34 10.6 19.96 10.66L18.18 10.96C18 10.99 17.84 11.09 17.73 11.23C17.63 11.37 17.59 11.54 17.62 11.7L17.8 12.58C17.67 12.65 17.55 12.72 17.43 12.8L16.62 12.29C16.46 12.2 16.28 12.16 16.09 12.19C15.91 12.22 15.75 12.32 15.65 12.46L14.62 13.81C14.51 13.95 14.47 14.12 14.51 14.29C14.54 14.45 14.65 14.6 14.8 14.7L15.61 15.2C15.57 15.33 15.54 15.47 15.51 15.6L14.55 15.76C14.37 15.79 14.2 15.89 14.1 16.03C13.99 16.16 13.95 16.33 13.99 16.5L14.32 18.12C14.39 18.46 14.75 18.69 15.13 18.63L16.1 18.47C16.17 18.58 16.25 18.7 16.34 18.81L15.78 19.54C15.68 19.68 15.64 19.85 15.67 20.02C15.7 20.18 15.81 20.33 15.96 20.42L17.45 21.36C17.77 21.56 18.2 21.48 18.42 21.2L18.98 20.46C19.12 20.49 19.27 20.52 19.42 20.54L19.6 21.42C19.66 21.73 19.95 21.94 20.28 21.94C20.32 21.94 20.36 21.94 20.41 21.93L22.19 21.63C22.37 21.6 22.53 21.51 22.64 21.37C22.74 21.23 22.78 21.06 22.75 20.9L22.57 20.02C22.7 19.95 22.82 19.87 22.95 19.79L23.76 20.3C23.91 20.4 24.1 20.43 24.28 20.4C24.46 20.37 24.62 20.28 24.72 20.14L25.75 18.78C25.97 18.49 25.89 18.1 25.57 17.9L24.76 17.39C24.8 17.26 24.83 17.13 24.86 17L25.82 16.83ZM24.09 15.84C23.77 15.89 23.54 16.14 23.52 16.43C23.51 16.77 23.43 17.1 23.29 17.41C23.17 17.69 23.28 18 23.54 18.17L24.21 18.59L23.97 18.9L23.31 18.48C23.04 18.32 22.68 18.34 22.44 18.54C22.17 18.77 21.86 18.95 21.51 19.08C21.22 19.2 21.05 19.49 21.11 19.78L21.25 20.5L20.84 20.57L20.69 19.85C20.63 19.56 20.36 19.34 20.04 19.33C19.67 19.32 19.3 19.25 18.96 19.12C18.87 19.09 18.79 19.08 18.7 19.08C18.48 19.08 18.26 19.18 18.13 19.35L17.67 19.96L17.33 19.74L17.78 19.14C17.97 18.89 17.94 18.57 17.72 18.35C17.47 18.1 17.27 17.82 17.12 17.51C16.99 17.23 16.67 17.08 16.36 17.13L15.56 17.27L15.49 16.89L16.28 16.76C16.6 16.71 16.84 16.46 16.85 16.16C16.87 15.83 16.94 15.5 17.08 15.18C17.2 14.91 17.09 14.59 16.83 14.43L16.16 14.01L16.4 13.7L17.06 14.11C17.33 14.28 17.69 14.26 17.93 14.06C18.2 13.83 18.52 13.65 18.86 13.51C19.16 13.4 19.33 13.11 19.27 12.82L19.12 12.09L19.53 12.03L19.68 12.75C19.74 13.04 20.01 13.25 20.33 13.26C20.7 13.28 21.07 13.35 21.41 13.47C21.72 13.58 22.06 13.49 22.24 13.24L22.7 12.64L23.05 12.86L22.59 13.46C22.4 13.7 22.43 14.03 22.65 14.25C22.9 14.5 23.1 14.78 23.25 15.09C23.38 15.36 23.7 15.52 24.02 15.46L24.81 15.33L24.89 15.7L24.09 15.84Z" fill="#FFFFFF" fill-opacity="0.870000" fill-rule="nonzero"/>
	<path id="Vector" d="M21.58 14.46C21.04 14.12 20.39 14 19.74 14.1C19.1 14.21 18.54 14.54 18.16 15.03C17.4 16.05 17.68 17.44 18.79 18.14C19.22 18.4 19.7 18.53 20.18 18.53C20.96 18.53 21.73 18.19 22.21 17.56C22.98 16.55 22.69 15.16 21.58 14.46ZM21.06 16.84C20.73 17.28 20.07 17.39 19.58 17.09C19.1 16.79 18.98 16.19 19.31 15.75C19.31 15.75 19.31 15.75 19.31 15.75C19.47 15.54 19.71 15.4 19.99 15.35C20.06 15.34 20.12 15.33 20.19 15.33C20.4 15.33 20.61 15.39 20.79 15.5C21.27 15.81 21.39 16.41 21.06 16.84Z" fill="#FFFFFF" fill-opacity="0.870000" fill-rule="nonzero"/>
</svg>
