<svg width="30.000000" height="30.000000" viewBox="0 0 30 30" fill="none" xmlns="http://www.w3.org/2000/svg" xmlns:xlink="http://www.w3.org/1999/xlink">
	<desc>
			Created with Pixso.
	</desc>
	<defs>
		<clipPath id="clip1_4776">
			<rect id="linkedin-svgrepo-com 1" width="30.000000" height="30.000000" fill="white" fill-opacity="0"/>
		</clipPath>
	</defs>
	<g clipPath="url(#clip1_4776)">
		<path id="Vector" d="M27.28 0L2.71 0C1.21 0 0 1.21 0 2.71L0 27.28C0 28.78 1.21 30 2.71 30L27.28 30C28.78 30 30 28.78 30 27.28L30 2.71C30 1.21 28.78 0 27.28 0ZM9.28 25.9C9.28 26.34 8.92 26.69 8.49 26.69L5.13 26.69C4.69 26.69 4.34 26.34 4.34 25.9L4.34 11.81C4.34 11.37 4.69 11.02 5.13 11.02L8.49 11.02C8.92 11.02 9.28 11.37 9.28 11.81L9.28 25.9ZM6.81 9.69C5.04 9.69 3.61 8.26 3.61 6.49C3.61 4.73 5.04 3.3 6.81 3.3C8.57 3.3 10 4.73 10 6.49C10 8.26 8.57 9.69 6.81 9.69ZM26.85 25.96C26.85 26.36 26.52 26.69 26.12 26.69L22.51 26.69C22.11 26.69 21.79 26.36 21.79 25.96L21.79 19.35C21.79 18.37 22.08 15.03 19.21 15.03C16.99 15.03 16.54 17.31 16.45 18.34L16.45 25.96C16.45 26.36 16.12 26.69 15.72 26.69L12.23 26.69C11.83 26.69 11.5 26.36 11.5 25.96L11.5 11.74C11.5 11.34 11.83 11.02 12.23 11.02L15.72 11.02C16.12 11.02 16.45 11.34 16.45 11.74L16.45 12.97C17.27 11.74 18.49 10.78 21.1 10.78C26.88 10.78 26.85 16.18 26.85 19.14L26.85 25.96Z" fill="#FFFFFF" fill-opacity="1.000000" fill-rule="nonzero"/>
	</g>
</svg>
