<svg>
<symbol id='svg-icon' width="24px" height="24px" viewBox="0 0 24 24" fill="none" xmlns="http://www.w3.org/2000/svg">
<path d="M3 10V18C3 19.1046 3.89543 20 5 20H9M3 10V6C3 4.89543 3.89543 4 5 4H19C20.1046 4 21 4.89543 21 6V10M3 10H21M21 10V13" stroke="#000000" strokeWidth="2" strokeLinecap="round" strokeLinejoin="round"/>
<path d="M15 16L13 18L15 20" stroke="#000000" strokeWidth="2" strokeLinecap="round" strokeLinejoin="round"/>
<path d="M19 16L21 18L19 20" stroke="#000000" strokeWidth="2" strokeLinecap="round" strokeLinejoin="round"/>
<circle cx="6" cy="7" r="1" fill="#000000"/>
<circle cx="9" cy="7" r="1" fill="#000000"/>
</symbol>
<symbol id='project-icon' width="23.999969" height="19.952271" viewBox="0 0 24 19.9523" fill="none" xmlns="http://www.w3.org/2000/svg" xmlns:xlink="http://www.w3.org/1999/xlink">
 <path id="big-gear" d="M14.06 10.27L13.12 9.42C13.22 9.22 13.31 9.03 13.39 8.82L14.72 8.82C15.16 8.82 15.51 8.5 15.51 8.1L15.51 5.99C15.51 5.6 15.16 5.27 14.72 5.27L13.39 5.27C13.31 5.07 13.22 4.87 13.12 4.68L14.06 3.83C14.37 3.54 14.37 3.09 14.06 2.81L12.42 1.31C12.11 1.03 11.61 1.03 11.3 1.31L10.36 2.17C10.15 2.08 9.93 2 9.71 1.93L9.71 0.72C9.71 0.32 9.35 0 8.91 0L6.59 0C6.16 0 5.8 0.32 5.8 0.72L5.8 1.93C5.58 2 5.36 2.08 5.15 2.17L4.21 1.31C4.06 1.18 3.86 1.1 3.65 1.1C3.44 1.1 3.24 1.18 3.09 1.31L1.45 2.81C1.3 2.94 1.21 3.13 1.21 3.32C1.21 3.51 1.3 3.69 1.45 3.83L2.39 4.68C2.29 4.87 2.2 5.07 2.12 5.27L0.79 5.27C0.35 5.27 0 5.6 0 5.99L0 8.1C0 8.5 0.35 8.82 0.79 8.82L2.12 8.82C2.2 9.03 2.29 9.22 2.39 9.42L1.45 10.27C1.14 10.55 1.14 11.01 1.45 11.29L3.09 12.78C3.4 13.06 3.9 13.06 4.21 12.78L5.15 11.93C5.36 12.02 5.58 12.1 5.8 12.17L5.8 13.38C5.8 13.78 6.16 14.1 6.59 14.1L8.91 14.1C9.35 14.1 9.71 13.78 9.71 13.38L9.71 12.17C9.93 12.1 10.15 12.02 10.36 11.93L11.3 12.78C11.61 13.06 12.11 13.06 12.42 12.78L14.06 11.29C14.37 11.01 14.37 10.55 14.06 10.27ZM12.02 7.94C11.91 8.37 11.73 8.78 11.47 9.16C11.27 9.44 11.32 9.81 11.58 10.05L12.38 10.78L11.86 11.25L11.06 10.53C10.8 10.29 10.39 10.25 10.08 10.42C9.66 10.66 9.21 10.83 8.74 10.93C8.38 11 8.12 11.29 8.12 11.63L8.12 12.66L7.38 12.66L7.38 11.63C7.38 11.29 7.13 11 6.77 10.93C6.3 10.83 5.85 10.66 5.43 10.42C5.12 10.25 4.71 10.29 4.45 10.53L3.65 11.25L3.13 10.78L3.93 10.05C4.19 9.81 4.24 9.44 4.04 9.16C3.78 8.78 3.6 8.37 3.49 7.94C3.4 7.62 3.08 7.38 2.71 7.38L1.58 7.38L1.58 6.71L2.71 6.71C3.08 6.71 3.4 6.48 3.49 6.15C3.6 5.72 3.78 5.31 4.04 4.94C4.24 4.65 4.19 4.28 3.93 4.05L3.13 3.32L3.65 2.84L4.45 3.57C4.71 3.81 5.12 3.85 5.43 3.67C5.84 3.44 6.29 3.27 6.77 3.17C7.13 3.09 7.38 2.8 7.38 2.47L7.38 1.44L8.12 1.44L8.12 2.47C8.12 2.8 8.38 3.09 8.74 3.17C9.21 3.27 9.66 3.44 10.08 3.67C10.39 3.85 10.8 3.81 11.06 3.57L11.86 2.84L12.38 3.32L11.58 4.05C11.32 4.28 11.27 4.65 11.47 4.94C11.73 5.31 11.91 5.72 12.02 6.15C12.1 6.48 12.42 6.71 12.79 6.71L13.93 6.71L13.93 7.38L12.79 7.38C12.42 7.38 12.1 7.62 12.02 7.94Z" fill="#E84949" fillOpacity="1.000000" fillRule="nonzero"/>
	<path id="Vector" d="M7.75 4.28C6.08 4.28 4.71 5.52 4.71 7.05C4.71 8.57 6.08 9.82 7.75 9.82C9.43 9.82 10.8 8.57 10.8 7.05C10.8 5.52 9.43 4.28 7.75 4.28ZM7.75 8.38C6.95 8.38 6.29 7.78 6.29 7.05C6.29 6.32 6.95 5.72 7.75 5.72C8.56 5.72 9.21 6.32 9.21 7.05C9.21 7.78 8.56 8.38 7.75 8.38Z" fill="#E84949" fillOpacity="1.000000" fillRule="nonzero"/>
	<path id="small-gear" d="M23.48 15.3C23.82 15.25 24.05 14.95 23.98 14.63L23.69 13.16C23.65 13.01 23.56 12.88 23.42 12.79C23.28 12.7 23.11 12.67 22.95 12.7L22.07 12.84C22 12.74 21.93 12.64 21.85 12.54L22.35 11.87C22.45 11.74 22.49 11.58 22.46 11.43C22.43 11.28 22.33 11.15 22.19 11.06L20.83 10.22C20.55 10.03 20.15 10.1 19.95 10.36L19.45 11.03C19.32 11 19.18 10.98 19.05 10.96L18.89 10.16C18.82 9.84 18.49 9.64 18.15 9.69L16.53 9.97C16.36 9.99 16.22 10.08 16.12 10.21C16.03 10.33 15.99 10.49 16.02 10.64L16.18 11.44C16.07 11.5 15.95 11.56 15.84 11.64L15.11 11.18C14.97 11.09 14.8 11.06 14.63 11.08C14.47 11.11 14.32 11.2 14.22 11.32L13.29 12.56C13.19 12.68 13.16 12.84 13.19 12.99C13.22 13.14 13.31 13.27 13.45 13.36L14.19 13.82C14.15 13.94 14.13 14.06 14.1 14.18L13.22 14.33C13.06 14.36 12.91 14.44 12.82 14.57C12.72 14.69 12.69 14.85 12.72 15L13.02 16.47C13.08 16.79 13.41 16.99 13.75 16.93L14.63 16.79C14.7 16.89 14.77 17 14.85 17.1L14.35 17.77C14.25 17.89 14.21 18.05 14.25 18.2C14.28 18.35 14.37 18.48 14.51 18.57L15.87 19.42C16.15 19.6 16.55 19.53 16.75 19.27L17.25 18.6C17.39 18.63 17.52 18.66 17.65 18.68L17.81 19.48C17.87 19.75 18.14 19.95 18.44 19.95C18.47 19.95 18.51 19.94 18.55 19.94L20.17 19.67C20.34 19.64 20.48 19.55 20.58 19.43C20.67 19.3 20.71 19.15 20.68 19L20.52 18.2C20.64 18.13 20.75 18.07 20.86 17.99L21.6 18.46C21.73 18.54 21.9 18.58 22.07 18.55C22.24 18.52 22.38 18.43 22.48 18.31L23.41 17.07C23.61 16.81 23.54 16.45 23.25 16.27L22.51 15.81C22.55 15.69 22.58 15.57 22.6 15.45L23.48 15.3ZM21.9 14.4C21.61 14.44 21.4 14.67 21.38 14.94C21.37 15.24 21.3 15.54 21.17 15.83C21.07 16.08 21.16 16.36 21.4 16.52L22.01 16.9L21.79 17.18L21.19 16.8C20.94 16.65 20.62 16.67 20.4 16.85C20.15 17.06 19.87 17.23 19.56 17.35C19.29 17.45 19.13 17.72 19.19 17.98L19.32 18.64L18.95 18.7L18.81 18.04C18.76 17.78 18.51 17.58 18.22 17.57C17.88 17.56 17.55 17.5 17.23 17.38C17.16 17.36 17.08 17.34 17 17.34C16.8 17.34 16.6 17.43 16.48 17.59L16.06 18.14L15.75 17.94L16.17 17.4C16.33 17.17 16.31 16.88 16.11 16.68C15.88 16.45 15.7 16.2 15.56 15.91C15.45 15.67 15.16 15.53 14.87 15.58L14.15 15.7L14.08 15.36L14.8 15.24C15.09 15.19 15.3 14.96 15.32 14.69C15.33 14.39 15.4 14.09 15.53 13.8C15.64 13.55 15.54 13.27 15.3 13.11L14.69 12.74L14.91 12.45L15.51 12.83C15.76 12.98 16.08 12.96 16.3 12.78C16.55 12.57 16.83 12.41 17.14 12.28C17.41 12.18 17.57 11.91 17.51 11.65L17.38 10.99L17.76 10.93L17.89 11.59C17.94 11.85 18.19 12.05 18.48 12.06C18.82 12.07 19.15 12.14 19.47 12.25C19.74 12.35 20.05 12.26 20.22 12.04L20.64 11.49L20.95 11.69L20.53 12.24C20.37 12.46 20.39 12.75 20.59 12.95C20.82 13.18 21 13.44 21.14 13.72C21.25 13.96 21.54 14.1 21.83 14.06L22.55 13.94L22.62 14.28L21.9 14.4Z" fill="#E84949" fillOpacity="1.000000" fillRule="nonzero"/>
	<path id="Vector" d="M19.62 13.14C19.12 12.84 18.53 12.72 17.95 12.82C17.36 12.92 16.85 13.22 16.51 13.67C15.81 14.59 16.07 15.85 17.08 16.49C17.47 16.73 17.91 16.84 18.35 16.84C19.06 16.84 19.76 16.54 20.19 15.97C20.89 15.04 20.63 13.78 19.62 13.14ZM19.14 15.31C18.84 15.71 18.24 15.81 17.8 15.54C17.37 15.26 17.25 14.72 17.56 14.32C17.56 14.32 17.56 14.32 17.56 14.32C17.7 14.13 17.92 14 18.18 13.95C18.23 13.94 18.29 13.94 18.35 13.94C18.55 13.94 18.73 13.99 18.9 14.09C19.33 14.37 19.45 14.91 19.14 15.31Z" fill="#E84949" fillOpacity="1.000000" fillRule="nonzero"/>
</symbol>
<symbol id='undrow_project_completed' width="511.000000" height="414.000000" viewBox="0 0 511 414" fill="none" xmlns="http://www.w3.org/2000/svg" xmlns:xlink="http://www.w3.org/1999/xlink">
	<desc>
			Created with Pixso.
	</desc>
	<defs>
		<clipPath id="clip1_4735">
			<rect id="undraw_project_completed_w0oq 1" width="511.000000" height="414.000000" fill="white" fill-opacity="0"/>
		</clipPath>
	</defs>
	<g clipPath="url(#clip1_4735)">
		<path id="Vector" d="M0 384.68L511 384.68L511 385.88L0 385.88L0 384.68Z" fill="#343D68" fill-opacity="1.000000" fill-rule="evenodd"/>
		<path id="Vector" d="M320.61 179.53C320.61 179.53 297.69 197.68 309.15 201.81C320.61 205.94 327.97 186.96 327.97 186.96L320.61 179.53Z" fill="#E9C1A1" fill-opacity="1.000000" fill-rule="nonzero"/>
		<path id="Vector" d="M321.43 172.93L316.51 181.18C316.51 181.18 324.7 181.18 326.34 193.56L332.89 185.31L321.43 172.93Z" fill="#CFCCE0" fill-opacity="1.000000" fill-rule="nonzero"/>
		<path id="Vector" d="M430.3 361.07L431.12 385.83L421.29 391.6L417.2 389.13L418.02 361.07L430.3 361.07Z" fill="#E9C1A1" fill-opacity="1.000000" fill-rule="nonzero"/>
		<path id="Vector" d="M372.18 354.47L373.81 380.88L350.89 390.78L352.53 376.75C352.53 376.75 359.08 366.02 357.44 354.47L372.18 354.47Z" fill="#E9C1A1" fill-opacity="1.000000" fill-rule="nonzero"/>
		<path id="Vector" d="M407.38 155.6C407.38 155.6 420.47 190.26 422.93 211.71C425.39 233.17 429.48 290.11 429.48 290.11L437.66 363.55L414.74 366.85L404.92 292.58L382.82 219.14L377.91 292.58L373.81 359.42L352.53 360.25L350.89 290.93L341.89 202.64L346.8 160.55L407.38 155.6Z" fill="#2F2E41" fill-opacity="1.000000" fill-rule="nonzero"/>
		<path id="Vector" d="M419.66 387.48C419.66 387.48 421 373.62 430.97 381.37L432.75 380.05L440.94 398.21C440.94 398.21 450.76 412.23 433.57 413.88C416.38 415.54 418.02 398.21 418.02 398.21L416.38 390.78L417.2 385.92L419.66 387.48Z" fill="#2F2E41" fill-opacity="1.000000" fill-rule="nonzero"/>
		<path id="Vector" d="M372.18 370.97C374.19 372.14 375.86 373.82 377.01 375.85C378.17 377.88 378.76 380.19 378.73 382.53C378.73 390.78 377.91 391.6 377.91 391.6L365.63 394.91C365.63 394.91 357.44 394.08 352.53 399.03C347.62 403.98 323.06 407.28 323.06 400.68C323.06 394.08 343.53 383.35 343.53 383.35C343.53 383.35 349.6 373.01 353.93 374.05C358.26 375.1 359.9 376.75 359.9 377.58C359.9 378.4 357.44 384.18 357.44 384.18C357.44 384.18 371.36 380.88 372.18 370.97Z" fill="#2F2E41" fill-opacity="1.000000" fill-rule="nonzero"/>
		<path id="Vector" d="M391.01 33.47C391.01 44.86 381.84 54.1 370.54 54.1C359.24 54.1 350.08 44.86 350.08 33.47C350.08 22.08 359.24 12.84 370.54 12.84C381.84 12.84 391.01 22.08 391.01 33.47Z" fill="#E9C1A1" fill-opacity="1.000000" fill-rule="evenodd"/>
		<path id="Vector" d="M385.68 38.84L394.69 59.46L370.13 94.95C370.13 94.95 368.49 56.16 363.58 49.56C358.67 42.96 385.68 38.84 385.68 38.84Z" fill="#E9C1A1" fill-opacity="1.000000" fill-rule="nonzero"/>
		<path id="Vector" d="M374.22 81.75L378.32 71.02L381.59 71.84L385.68 68.54L391.41 50.39L399.6 56.16L410.24 164.26L343.94 165.91L352.94 90.82L361.13 69.37L367.04 61.49L370.95 73.49L374.22 81.75Z" fill="#CFCCE0" fill-opacity="1.000000" fill-rule="nonzero"/>
		<path id="Vector" d="M393.05 127.96L395.56 53.31C395.56 53.31 400.42 53.69 402.06 56.16C403.69 58.64 430.71 63.59 430.71 63.59L425.8 140.33C425.8 140.33 446.26 201.4 438.89 204.7C431.53 208 418.43 207.17 418.43 207.17L393.05 127.96Z" fill="#575A89" fill-opacity="1.000000" fill-rule="nonzero"/>
		<path id="Vector" d="M353.35 118.47L362.03 68.16L342.71 81.33L347.62 117.64L343.53 142.4C343.53 142.4 327.97 210.89 332.89 213.36C337.8 215.84 343.53 213.36 343.53 213.36L353.35 144.05L353.35 118.47Z" fill="#575A89" fill-opacity="1.000000" fill-rule="nonzero"/>
		<path id="Vector" d="M348.44 79.68L342.71 81.33L340.25 114.34L336.16 143.22L316.51 178.71C316.51 178.71 326.34 172.1 330.43 191.08L352.07 153.11L348.44 79.68Z" fill="#575A89" fill-opacity="1.000000" fill-rule="nonzero"/>
		<path id="Vector" d="M412.29 172.93C412.29 172.93 389.37 191.08 400.83 195.21C412.29 199.34 419.66 180.36 419.66 180.36L412.29 172.93Z" fill="#E9C1A1" fill-opacity="1.000000" fill-rule="nonzero"/>
		<path id="Vector" d="M426.2 182.01L418.84 191.08L409.01 173.75L413.11 166.33L426.2 182.01Z" fill="#CFCCE0" fill-opacity="1.000000" fill-rule="nonzero"/>
		<path id="Vector" d="M424.57 66.48L431.12 63.18C431.12 63.18 436.03 69.78 436.85 75.56C437.66 81.33 441.76 88.76 441.76 92.89C441.76 97.01 453.22 135.8 453.22 135.8L427.02 189.43C427.02 189.43 421.29 169.63 409.01 167.98L429.48 139.1L418.02 118.47L424.57 66.48Z" fill="#575A89" fill-opacity="1.000000" fill-rule="nonzero"/>
		<path id="Vector" d="M387.67 13.82L391.53 12.26C391.53 12.26 383.46 3.3 372.24 4.08L375.39 0.58C375.39 0.58 367.68 -2.54 360.66 5.64C356.97 9.94 352.7 14.99 350.04 20.68L345.91 20.68L347.63 24.51L341.6 28.34L347.79 27.65C347.42 29.75 347.37 31.89 347.63 34C347.89 36.12 348.96 38.04 350.61 39.38C350.61 39.38 355.4 29.39 355.4 27.83L355.4 31.73C355.4 31.73 359.26 28.22 359.26 25.89L361.36 28.61L362.41 24.33L375.39 28.61L373.29 25.11L381.36 26.27L378.2 21.99C378.2 21.99 387.32 27.05 387.67 31.34C388.02 35.62 390.69 39.68 390.69 39.68C390.69 39.68 397.85 19.66 387.67 13.82Z" fill="#2F2E41" fill-opacity="1.000000" fill-rule="nonzero"/>
		<path id="Vector" d="M389.61 30.17C389.61 31.77 388.59 33.06 387.32 33.06C386.06 33.06 385.03 31.77 385.03 30.17C385.03 28.58 386.06 27.28 387.32 27.28C388.59 27.28 389.61 28.58 389.61 30.17Z" fill="#E9C1A1" fill-opacity="1.000000" fill-rule="evenodd"/>
		<path id="Vector" d="M94.72 170.07L24.05 170.07L24.05 150.11L60.94 150.11L94.72 170.07Z" fill="#4F47C8" fill-opacity="1.000000" fill-rule="nonzero"/>
		<path id="Vector" d="M23.86 167.33L23.86 225.65L253.32 225.65L253.32 167.33L23.86 167.33ZM113.35 215.87L38.81 215.87L38.81 207.65L113.35 207.65L113.35 215.87ZM238.38 200.6L38.81 200.6L38.81 192.38L238.38 192.38L238.38 200.6ZM238.38 185.34L38.81 185.34L38.81 177.12L238.38 177.12L238.38 185.34Z" fill="#343D68" fill-opacity="1.000000" fill-rule="nonzero"/>
		<path id="Vector" d="M94.72 75.74L24.05 75.74L24.05 55.78L60.94 55.78L94.72 75.74Z" fill="#4F47C8" fill-opacity="1.000000" fill-rule="nonzero"/>
		<path id="Vector" d="M23.86 74.18L23.86 132.5L253.32 132.5L253.32 74.18L23.86 74.18ZM113.35 122.71L38.81 122.71L38.81 114.49L113.35 114.49L113.35 122.71ZM156.45 107.45L38.81 107.45L38.81 99.23L156.45 99.23L156.45 107.45ZM238.38 92.18L38.81 92.18L38.81 83.96L238.38 83.96L238.38 92.18Z" fill="#343D68" fill-opacity="1.000000" fill-rule="nonzero"/>
		<path id="Vector" d="M94.72 262.44L24.05 262.44L24.05 242.48L60.94 242.48L94.72 262.44Z" fill="#4F47C8" fill-opacity="1.000000" fill-rule="nonzero"/>
		<path id="Vector" d="M23.86 258.53L23.86 316.85L253.32 316.85L253.32 258.53L23.86 258.53ZM156.45 307.06L38.81 307.06L38.81 298.84L156.45 298.84L156.45 307.06ZM156.45 291.8L38.81 291.8L38.81 283.58L156.45 283.58L156.45 291.8ZM238.38 276.53L38.81 276.53L38.81 268.31L238.38 268.31L238.38 276.53Z" fill="#343D68" fill-opacity="1.000000" fill-rule="nonzero"/>
		<path id="Vector" d="M318.36 119.58L285.74 119.58L285.74 86.7L307.88 86.7L307.88 87.49L286.52 87.49L286.52 118.8L317.58 118.8L317.58 103.14L318.36 103.14L318.36 119.58Z" fill="#343D68" fill-opacity="1.000000" fill-rule="nonzero"/>
		<path id="Vector" d="M301.88 111.01C301.13 108.76 291.68 101.14 297.47 99.85L302.22 106.24L324.05 84.23L326.25 86.44L301.88 111.01Z" fill="#4F47C8" fill-opacity="1.000000" fill-rule="nonzero"/>
		<path id="Vector" d="M318.36 212.73L285.74 212.73L285.74 179.86L307.88 179.86L307.88 180.64L286.52 180.64L286.52 211.95L317.58 211.95L317.58 196.3L318.36 196.3L318.36 212.73Z" fill="#343D68" fill-opacity="1.000000" fill-rule="nonzero"/>
		<path id="Vector" d="M301.88 204.16C301.13 201.92 291.68 194.29 297.47 193.01L302.22 199.39L324.05 177.38L326.25 179.59L301.88 204.16Z" fill="#4F47C8" fill-opacity="1.000000" fill-rule="nonzero"/>
		<path id="Vector" d="M318.36 305.5L285.74 305.5L285.74 272.62L307.88 272.62L307.88 273.4L286.52 273.4L286.52 304.71L317.58 304.71L317.58 289.06L318.36 289.06L318.36 305.5Z" fill="#343D68" fill-opacity="1.000000" fill-rule="nonzero"/>
		<path id="Vector" d="M301.88 296.92C301.13 294.68 291.68 287.05 297.47 285.77L302.22 292.15L324.05 270.14L326.25 272.35L301.88 296.92Z" fill="#4F47C8" fill-opacity="1.000000" fill-rule="nonzero"/>
	</g>
</symbol>
</svg>




