<svg width="30.000000" height="30.000000" viewBox="0 0 30 30" fill="none" xmlns="http://www.w3.org/2000/svg" xmlns:xlink="http://www.w3.org/1999/xlink">
	<desc>
			Created with Pixso.
	</desc>
	<defs>
		<clipPath id="clip1_4784">
			<rect id="twitter-svgrepo-com 1" width="30.000000" height="30.000000" fill="white" fill-opacity="0"/>
		</clipPath>
	</defs>
	<g clip-path="url(#clip1_4784)">
		<path id="Vector" d="M0.57 22.5C1.84 22.34 3.13 22.51 4.39 22.3C5.03 22.2 5.61 21.98 6.19 21.76C4.76 20.84 3.48 19.79 2.28 18.54C1.85 18.09 2.16 17.34 2.79 17.33C3.3 17.35 3.8 17.31 4.29 17.21C3.04 15.63 2.08 13.93 1.33 12.03C1.13 11.52 1.72 11 2.2 11.16C2.48 11.27 2.77 11.35 3.06 11.4C2.17 9.27 1.99 7.13 2.48 4.77C2.6 4.23 3.31 4.1 3.67 4.46C6.52 7.25 10.11 8.6 13.95 9.24C13.62 6.61 15.48 3.81 17.93 2.9C19.97 2.14 22.7 2.66 24.07 4.37C24.99 3.79 26.25 3.6 27.27 3.43C27.81 3.34 28.32 3.86 28.01 4.39C27.64 5.01 27.29 5.67 26.9 6.3C27.69 6.07 28.5 5.92 29.31 5.82C29.89 5.75 30.24 6.64 29.79 7C28.85 7.76 27.91 8.62 26.9 9.31C26.87 15.99 24.92 21.6 18.95 25.4C13.98 28.58 4.73 28.04 0.41 23.72L0.4 23.72C0.21 23.67 0.11 23.52 0.07 23.37C-0.09 23.12 0.03 22.81 0.25 22.69C0.33 22.59 0.44 22.51 0.57 22.5Z" fill="#FFFFFF" fill-opacity="1.000000" fill-rule="nonzero"/>
	</g>
</svg>
