<svg width="30.000000" height="30.000000" viewBox="0 0 30 30" fill="none" xmlns="http://www.w3.org/2000/svg" xmlns:xlink="http://www.w3.org/1999/xlink">
	<desc>
			Created with Pixso.
	</desc>
	<defs>
		<clipPath id="clip1_4778">
			<rect width="30.000000" height="30.000000" fill="white" fill-opacity="0"/>
		</clipPath>
	</defs>
	<g clip-path="url(#clip1_4778)">
		<path d="M25.6 4.39C22.77 1.56 19 0 15 0C10.99 0 7.22 1.56 4.39 4.39C1.56 7.22 0 10.99 0 15C0 18.01 0.88 20.91 2.57 23.39L0.04 29.3C-0.04 29.48 0 29.71 0.14 29.85C0.29 29.99 0.52 30.04 0.71 29.95L6.36 27.26C8.89 29.05 11.87 30 15 30C19 30 22.77 28.43 25.6 25.6C28.43 22.77 30 19 30 15C30 10.99 28.43 7.22 25.6 4.39Z" fill="#2A9F44" fill-opacity="0" fill-rule="nonzero"/>
		<path d="M6.36 27.26C8.89 29.05 11.87 30 15 30C19 30 22.77 28.43 25.6 25.6C28.43 22.77 30 19 30 15C30 10.99 28.43 7.22 25.6 4.39C22.77 1.56 19 0 15 0C10.99 0 7.22 1.56 4.39 4.39C1.56 7.22 0 10.99 0 15C0 18.01 0.88 20.91 2.57 23.39L1.9 24.95L1.43 26.05L0.04 29.3C-0.04 29.48 0 29.71 0.14 29.85C0.29 29.99 0.52 30.04 0.71 29.95L3.89 28.43L4.98 27.91L6.36 27.26ZM7.01 22.82L8.66 23.99Q10.04 24.96 11.57 25.46Q13.2 26 15 26Q17.27 26 19.22 25.19Q21.16 24.38 22.77 22.77Q24.38 21.16 25.19 19.22Q26 17.27 26 15Q26 12.72 25.19 10.77Q24.38 8.83 22.77 7.22Q21.16 5.61 19.22 4.8Q17.27 4 15 4Q12.72 4 10.77 4.8Q8.83 5.61 7.22 7.22Q5.61 8.83 4.8 10.77Q4 12.72 4 15Q4 16.74 4.5 18.32Q4.97 19.81 5.88 21.15L7.01 22.82Z" fill="#FFFFFF" fill-opacity="1.000000" fill-rule="evenodd"/>
		<path d="M27.49 15C27.49 21.9 21.9 27.49 15 27.49C8.09 27.49 2.5 21.9 2.5 15C2.5 8.09 8.09 2.5 15 2.5C21.9 2.5 27.49 8.09 27.49 15Z" fill="#E5E5E5" fill-opacity="0" fill-rule="evenodd"/>
		<path d="M25.99 15C25.99 21.07 21.07 25.99 15 25.99C8.92 25.99 4 21.07 4 15C4 8.92 8.92 4 15 4C21.07 4 25.99 8.92 25.99 15Z" fill="#FFFFFF" fill-opacity="0" fill-rule="evenodd"/>
		<path d="M22.99 20.07L22.54 17.64C22.5 17.44 22.34 17.28 22.14 17.24L18.61 16.53C18.44 16.5 18.27 16.55 18.16 16.67L16.72 18.1C14.3 17.02 12.96 15.67 11.77 13.15L13.21 11.72C13.32 11.6 13.38 11.43 13.34 11.27L12.64 7.73C12.6 7.53 12.44 7.37 12.24 7.34L9.8 6.89C9.73 6.87 9.67 6.88 9.6 6.89C8.96 7.04 8.37 7.36 7.9 7.83C7.09 8.64 6.79 9.82 7.01 11.24C7.39 13.63 8.56 16.96 10.72 19.13L10.75 19.16C12.92 21.32 16.24 22.49 18.63 22.86C18.93 22.91 19.22 22.93 19.5 22.93C20.54 22.93 21.41 22.61 22.05 21.97C22.51 21.5 22.84 20.92 22.98 20.27C23 20.21 23 20.14 22.99 20.07Z" fill="#FFFFFF" fill-opacity="1.000000" fill-rule="nonzero"/>
		<path d="M20.5 22.05C20.22 22.05 19.93 22.03 19.63 21.98C17.24 21.6 13.92 20.43 11.75 18.27L11.72 18.24C9.56 16.07 8.39 12.75 8.01 10.36C7.82 9.12 8.02 8.07 8.61 7.28C8.36 7.43 8.12 7.61 7.9 7.83C7.09 8.64 6.79 9.82 7.01 11.24C7.39 13.63 8.56 16.96 10.72 19.13L10.75 19.16C12.92 21.32 16.24 22.49 18.63 22.86C18.93 22.91 19.22 22.93 19.5 22.93C20.54 22.93 21.41 22.61 22.05 21.97C22.16 21.85 22.27 21.73 22.37 21.6C21.84 21.9 21.21 22.05 20.5 22.05Z" fill="#189433" fill-opacity="0" fill-rule="nonzero"/>
	</g>
</svg>
