<?xml version="1.0" encoding="UTF-8"?>
<svg xmlns="http://www.w3.org/2000/svg" xmlns:xlink="http://www.w3.org/1999/xlink" width="1640px" height="255px" viewBox="0 0 1640 255" version="1.1">
<g id="surface1">
<path style=" stroke:none;fill-rule:evenodd;fill:rgb(20.392157%,23.921569%,40.784314%);fill-opacity:1;" d="M 0 83.84375 L 76.707031 66.617188 C 153.417969 49.390625 306.832031 15.71875 460.25 4.746094 C 613.667969 -6.996094 767.082031 4.746094 920.5 21.191406 C 1073.917969 38.417969 1227.332031 61.128906 1380.75 66.617188 C 1534.167969 72.101562 1687.582031 61.128906 1764.292969 55.65625 L 1841 49.390625 L 1841 320.359375 L 1764.292969 320.359375 C 1687.582031 320.359375 1534.167969 320.359375 1380.75 320.359375 C 1227.332031 320.359375 1073.917969 320.359375 920.5 320.359375 C 767.082031 320.359375 613.667969 320.359375 460.25 320.359375 C 306.832031 320.359375 153.417969 320.359375 76.707031 320.359375 L 0 320.359375 Z M 0 83.84375 "/>
</g>
</svg>
