<?xml version="1.0" encoding="UTF-8"?>
<svg xmlns="http://www.w3.org/2000/svg" xmlns:xlink="http://www.w3.org/1999/xlink" width="1640px" height="250px" viewBox="0 0 1640 250" version="1.1">
<g id="surface1">
<path style=" stroke:none;fill-rule:evenodd;fill:rgb(20.392157%,23.921569%,40.784314%);fill-opacity:1;" d="M 1640 184.191406 L 1571.667969 197.609375 C 1503.332031 211.027344 1366.667969 237.25 1230 245.796875 C 1093.332031 254.941406 956.667969 245.796875 820 232.988281 C 683.332031 219.570312 546.667969 201.882812 410 197.609375 C 273.332031 193.335938 136.667969 201.882812 68.332031 206.144531 L 0 211.027344 L 0 0 L 68.332031 0 C 136.667969 0 273.332031 0 410 0 C 546.667969 0 683.332031 0 820 0 C 956.667969 0 1093.332031 0 1230 0 C 1366.667969 0 1503.332031 0 1571.667969 0 L 1640 0 Z M 1640 184.191406 "/>
</g>
</svg>
