<svg width="43.695679" height="43.695679" viewBox="0 0 43.6957 43.6957" fill="none" xmlns="http://www.w3.org/2000/svg" xmlns:xlink="http://www.w3.org/1999/xlink">
	<defs>
		<clipPath id="clip1_4700">
			<rect id="html-5-logo-svgrepo-com 1" width="43.695652" height="43.695652" fill="white" fill-opacity="0"/>
		</clipPath>
	</defs>
	<g clipPath="url(#clip1_4700)">
		<path id="Vector" d="M37.28 8.56L34.47 40.07L21.82 43.58L9.21 40.08L6.4 8.56L37.28 8.56Z" fill="#E44D26" fill-opacity="1.000000" fill-rule="nonzero"/>
		<path id="Vector" d="M21.84 40.9L32.06 38.07L34.46 11.14L21.84 11.14L21.84 40.9Z" fill="#F16529" fill-opacity="1.000000" fill-rule="nonzero"/>
		<path id="Vector" d="M16.37 18.87L21.84 18.87L21.84 15L12.15 15L12.24 16.04L13.19 26.69L21.84 26.69L21.84 22.83L16.73 22.83L16.37 18.87ZM17.25 28.63L13.36 28.63L13.91 34.7L21.83 36.89L21.84 36.89L21.84 32.87L21.83 32.87L17.52 31.71L17.25 28.63Z" fill="#EBEBEB" fill-opacity="1.000000" fill-rule="nonzero"/>
		<path id="Vector" d="M9.28 0L11.24 0L11.24 1.94L13.04 1.94L13.04 0L15 0L15 5.87L13.04 5.87L13.04 3.9L11.24 3.9L11.24 5.87L9.28 5.87L9.28 0L9.28 0ZM17.59 1.94L15.86 1.94L15.86 0L21.28 0L21.28 1.94L19.55 1.94L19.55 5.87L17.59 5.87L17.59 1.94L17.59 1.94L17.59 1.94ZM22.14 0L24.19 0L25.45 2.06L26.71 0L28.76 0L28.76 5.87L26.8 5.87L26.8 2.96L25.45 5.05L25.42 5.05L24.06 2.96L24.06 5.87L22.14 5.87L22.14 0ZM29.74 0L31.7 0L31.7 3.93L34.46 3.93L34.46 5.87L29.74 5.87L29.74 0L29.74 0Z" fill="#000000" fill-opacity="1.000000" fill-rule="nonzero"/>
		<path id="Vector" d="M21.83 26.69L26.59 26.69L26.14 31.71L21.83 32.87L21.83 36.89L29.75 34.7L29.81 34.04L30.72 23.87L30.82 22.83L21.83 22.83L21.83 26.69ZM21.83 18.86L21.83 18.87L31.17 18.87L31.24 18L31.42 16.04L31.51 15L21.83 15L21.83 18.86L21.83 18.86Z" fill="#FFFFFF" fill-opacity="1.000000" fill-rule="nonzero"/>
	</g>
</svg>
