<svg width="2594.5945945945946" height="800" viewBox="0 0 1440 444" fill="none" xmlns="http://www.w3.org/2000/svg" xmlns:xlink="http://www.w3.org/1999/xlink">
	<desc>
			Created with Pixso.
	</desc>
	<defs></defs>
	<mask id="mask1_4769" mask-type="alpha" maskUnits="userSpaceOnUse" x="0.000000" y="0.000000" width="1440.000000" height="444.000000">
		<rect width="1440.000000" height="444.000000" fill="#D9D9D9" fill-opacity="1.000000"></rect>
	</mask>
	<g mask="url(#mask1_4769)">
		<path d="M0 78.56L60 65.09C120 51.62 240 25.29 360 16.71C480 7.53 600 16.71 720 29.57C840 43.04 960 60.8 1080 65.09C1200 69.38 1320 60.8 1380 56.52L1440 51.62L1440 263.5L1380 263.5C1320 263.5 1200 263.5 1080 263.5C960 263.5 840 263.5 720 263.5C600 263.5 480 263.5 360 263.5C240 263.5 120 263.5 60 263.5L0 263.5L0 78.56Z" fill="#343D68" fill-opacity="1.000000" fill-rule="evenodd"></path>
	</g>
	<g mask="url(#mask1_4769)">
		<path d="M1440 443.43L1380 456.9C1320 470.37 1200 496.7 1080 505.28C960 514.46 840 505.28 720 492.42C600 478.95 480 461.19 360 456.9C240 452.61 120 461.19 60 465.47L0 470.37L0 258.5L60 258.5C120 258.5 240 258.5 360 258.5C480 258.5 600 258.5 720 258.5C840 258.5 960 258.5 1080 258.5C1200 258.5 1320 258.5 1380 258.5L1440 258.5L1440 443.43Z" fill="#343D68" fill-opacity="1.000000" fill-rule="evenodd"></path>
	</g>
</svg>